<svg xmlns="http://www.w3.org/2000/svg" width="24" height="24" viewBox="0 0 24 24" fill="none" stroke-linecap="round" stroke-linejoin="round">
  <path d="M12 22s8-4 8-10V5l-8-3-8 3v7c0 6 8 10 8 10" stroke="#0284c7" stroke-width="2"/>
  <g transform="translate(12 12) scale(0.5) translate(-12 -12)">
    <path d="M8.5 14.5A2.5 2.5 0 0 0 11 12c0-1.38-.5-2-1-3-1.072-2.143-.224-4.054 2-6 .5 2.5 2 4.9 4 6.5 2 1.6 3 3.5 3 5.5a7 7 0 1 1-14 0c0-1.153.433-2.294 1-3a2.5 2.5 0 0 0 2.5 2.5z" stroke="#f04438" stroke-width="2" vector-effect="non-scaling-stroke"/>
  </g>
</svg>
